<svg width="40" height="40" viewBox="0 0 40 40" fill="none" xmlns="http://www.w3.org/2000/svg">
<rect width="40" height="40" rx="6" fill="#D1E7FC"/>
<g clip-path="url(#clip0_391_32229)">
<rect x="4" y="4" width="32" height="32" rx="16" fill="#D1E7FC"/>
<path fill-rule="evenodd" clip-rule="evenodd" d="M22.5932 16.683C22.5932 18.1205 21.4325 19.2857 20.0007 19.2857C18.5688 19.2857 17.408 18.1205 17.408 16.683C17.408 15.2455 18.5688 14.0802 20.0007 14.0802C21.4325 14.0802 22.5932 15.2455 22.5932 16.683ZM22.0188 20.3435C23.3001 19.63 24.1673 18.2582 24.1673 16.683C24.1673 14.3728 22.3018 12.5 20.0007 12.5C17.6995 12.5 15.834 14.3728 15.834 16.683C15.834 18.2582 16.7012 19.63 17.9825 20.3435C16.9748 20.6648 16.0481 21.2253 15.2866 21.9897C14.2222 23.0583 13.5548 24.4511 13.38 25.9369C13.3292 26.3686 13.6864 26.7222 14.121 26.7222V26.7222C14.5557 26.7222 14.9019 26.3678 14.9683 25.9382C15.133 24.8726 15.6306 23.8791 16.3996 23.1071C17.3547 22.1483 18.65 21.6096 20.0007 21.6096C21.3513 21.6096 22.6466 22.1483 23.6017 23.1071C24.3707 23.8791 24.8683 24.8726 25.033 25.9382C25.0994 26.3678 25.4456 26.7222 25.8803 26.7222V26.7222C26.315 26.7222 26.6721 26.3686 26.6213 25.9369C26.4465 24.4511 25.7791 23.0583 24.7147 21.9897C23.9532 21.2253 23.0265 20.6648 22.0188 20.3435Z" fill="#1B84F1" stroke="#1B84F1" stroke-width="0.5"/>
</g>
<defs>
<clipPath id="clip0_391_32229">
<rect x="4" y="4" width="32" height="32" rx="16" fill="white"/>
</clipPath>
</defs>
</svg>
