<svg width="80" height="80" viewBox="0 0 80 80" fill="none" xmlns="http://www.w3.org/2000/svg">
<path d="M40 77.3333C60.2504 77.3333 76.6666 60.9171 76.6666 40.6667C76.6666 20.4162 60.2504 4 40 4C19.7495 4 3.33331 20.4162 3.33331 40.6667C3.33331 60.9171 19.7495 77.3333 40 77.3333Z" fill="#E4F7CF"/>
<path d="M14.3333 45.6667C16.1743 45.6667 17.6667 44.1743 17.6667 42.3333C17.6667 40.4924 16.1743 39 14.3333 39C12.4924 39 11 40.4924 11 42.3333C11 44.1743 12.4924 45.6667 14.3333 45.6667Z" stroke="#C4D544" stroke-width="2"/>
<path d="M64.6667 52C65.7713 52 66.6667 51.1046 66.6667 50C66.6667 48.8954 65.7713 48 64.6667 48C63.5622 48 62.6667 48.8954 62.6667 50C62.6667 51.1046 63.5622 52 64.6667 52Z" stroke="#C4D544" stroke-width="2"/>
<path d="M31 18C32.1046 18 33 17.1046 33 16C33 14.8954 32.1046 14 31 14C29.8954 14 29 14.8954 29 16C29 17.1046 29.8954 18 31 18Z" stroke="#C4D544" stroke-width="2"/>
<path d="M36 60V48" stroke="#C4D544" stroke-width="3" stroke-linecap="round" stroke-linejoin="round"/>
<path d="M41.001 60V48" stroke="#C4D544" stroke-width="3" stroke-linecap="round" stroke-linejoin="round"/>
<path d="M46 60V48" stroke="#C4D544" stroke-width="3" stroke-linecap="round" stroke-linejoin="round"/>
<path d="M54.6942 39H27.3058C26.5846 39 26 39.7795 26 40.7411V42.2589C26 43.2205 26.5846 44 27.3058 44H54.6942C55.4154 44 56 43.2205 56 42.2589V40.7411C56 39.7795 55.4154 39 54.6942 39Z" stroke="#4EC738" stroke-width="3" stroke-linejoin="round"/>
<path d="M31.0665 63.2979L28.6908 43.5H53.3092L50.9335 63.2979C50.7827 64.5544 49.7168 65.5 48.4513 65.5H33.5487C32.2832 65.5 31.2173 64.5544 31.0665 63.2979Z" stroke="#4EC738" stroke-width="3"/>
<path d="M46 19.8568L52.5062 26.6663L68.6667 9.33301" stroke="#4EC738" stroke-width="5" stroke-linecap="round" stroke-linejoin="round"/>
<path d="M26 38.1945C26 34.9217 28.6531 32.2686 31.9259 32.2686H50.7407C54.0135 32.2686 56.6667 34.9217 56.6667 38.1945C56.6667 38.6036 56.335 38.9352 55.9259 38.9352H26.7407C26.3317 38.9352 26 38.6036 26 38.1945Z" fill="#E4F7CF" stroke="#4EC738" stroke-width="3" stroke-linejoin="round"/>
<path d="M37.2227 31.5555C37.2227 29.5919 38.8145 28 40.7782 28H41.3252C43.2889 28 44.8808 29.5919 44.8808 31.5555C44.8808 31.801 44.6818 32 44.4363 32H37.6671C37.4217 32 37.2227 31.801 37.2227 31.5555Z" stroke="#4EC738" stroke-width="3" stroke-linejoin="round"/>
</svg>
