<svg width="80" height="80" viewBox="0 0 80 80" fill="none" xmlns="http://www.w3.org/2000/svg">
<path d="M40 77.3333C60.2504 77.3333 76.6666 60.9171 76.6666 40.6667C76.6666 20.4162 60.2504 4 40 4C19.7495 4 3.33331 20.4162 3.33331 40.6667C3.33331 60.9171 19.7495 77.3333 40 77.3333Z" fill="#E4F7CF"/>
<path d="M64.8074 34.0811C66.3555 39.9127 65.7997 46.1033 63.2376 51.5659C60.6755 57.0284 56.2709 61.4137 50.7971 63.9519C45.3233 66.49 39.1304 67.0187 33.3057 65.4449C27.4809 63.8713 22.3968 60.2959 18.9459 55.3467C15.495 50.3974 13.898 44.3906 14.4353 38.381C14.9726 32.3714 17.6099 26.7432 21.884 22.4846C26.1581 18.226 31.7959 15.6093 37.8074 15.0938C43.8189 14.5784 49.8199 16.1973 54.7565 19.6661" stroke="#C4D544" stroke-width="3" stroke-linecap="round" stroke-linejoin="round"/>
<path d="M27 39.6667L37.3333 50.6667L63 22.6667" stroke="#4EC738" stroke-width="6" stroke-linecap="round" stroke-linejoin="round"/>
</svg>
