<svg width="300" height="250" viewBox="0 0 300 250" fill="none" xmlns="http://www.w3.org/2000/svg">
<path d="M148 43H60C48.9543 43 40 51.9543 40 63V101" stroke="#A6C5E6" stroke-width="3" stroke-linecap="round" stroke-linejoin="round" stroke-dasharray="8 8"/>
<path d="M172 181H228C239.046 181 248 172.046 248 161V97" stroke="#A6C5E6" stroke-width="3" stroke-linecap="round" stroke-linejoin="round" stroke-dasharray="8 8"/>
<rect x="20" y="105" width="156" height="102" rx="16" fill="#E4ECF9"/>
<path opacity="0.5" d="M32.3055 140.633C47.8249 137.468 59.6274 137.239 77.9294 139.417C81.5908 139.853 84.6814 142.332 85.9704 145.787L108.789 206.937H43.1105C38.634 206.937 34.7032 203.957 33.4409 199.662C28.0844 181.438 24.047 169.184 24.817 149.378C24.984 145.084 28.0949 141.492 32.3055 140.633Z" fill="#6CAFFD"/>
<rect x="148" y="20" width="118" height="78" rx="8" fill="#E4ECF9"/>
<g opacity="0.5">
<g clip-path="url(#clip0_50_63720)">
<path d="M251.051 41.2422L244.054 50.1312" stroke="#6CAFFD" stroke-width="3" stroke-linecap="round" stroke-linejoin="round"/>
<path d="M245.721 41.2422L252.717 50.1312" stroke="#6CAFFD" stroke-width="3" stroke-linecap="round" stroke-linejoin="round"/>
<path d="M244.721 52.9844L253.883 61.556" stroke="#6CAFFD" stroke-width="3" stroke-linecap="round" stroke-linejoin="round"/>
<path d="M252.051 52.9844L242.889 61.556" stroke="#6CAFFD" stroke-width="3" stroke-linecap="round" stroke-linejoin="round"/>
<path d="M254.051 64.4141L240.391 78.7" stroke="#6CAFFD" stroke-width="3" stroke-linecap="round" stroke-linejoin="round"/>
<path d="M242.723 64.4141L256.383 78.7" stroke="#6CAFFD" stroke-width="3" stroke-linecap="round" stroke-linejoin="round"/>
<path d="M250.719 36V38.2223H246.054V36H250.719Z" fill="#6CAFFD" stroke="#6CAFFD" stroke-width="1.5" stroke-linecap="round" stroke-linejoin="round"/>
<path d="M249.695 75.4141V78.6986H247.189V75.4141H249.695Z" fill="#6CAFFD" stroke="#6CAFFD" stroke-width="1.5" stroke-linecap="round" stroke-linejoin="round"/>
<path d="M252.717 41.3984L253.717 49.97" stroke="#6CAFFD" stroke-width="1.5" stroke-linecap="round" stroke-linejoin="round"/>
<path d="M244.055 41.3984L243.055 49.97" stroke="#6CAFFD" stroke-width="1.5" stroke-linecap="round" stroke-linejoin="round"/>
<path d="M251.719 41.3984L252.719 49.97" stroke="#6CAFFD" stroke-width="3" stroke-linecap="round" stroke-linejoin="round"/>
<path d="M245.055 41.3984L244.055 49.97" stroke="#6CAFFD" stroke-width="3" stroke-linecap="round" stroke-linejoin="round"/>
<path d="M254.217 52.9844L255.217 61.3972" stroke="#6CAFFD" stroke-width="1.5" stroke-linecap="round" stroke-linejoin="round"/>
<path d="M242.557 52.9844L241.557 61.3972" stroke="#6CAFFD" stroke-width="1.5" stroke-linecap="round" stroke-linejoin="round"/>
<path d="M253.217 52.9844L254.217 61.3972" stroke="#6CAFFD" stroke-width="3" stroke-linecap="round" stroke-linejoin="round"/>
<path d="M243.557 52.9844L242.557 61.3972" stroke="#6CAFFD" stroke-width="3" stroke-linecap="round" stroke-linejoin="round"/>
<path d="M255.55 64.5703L257.383 78.6976" stroke="#6CAFFD" stroke-width="1.5" stroke-linecap="round" stroke-linejoin="round"/>
<path d="M241.223 64.5703L239.391 78.6976" stroke="#6CAFFD" stroke-width="1.5" stroke-linecap="round" stroke-linejoin="round"/>
<path d="M254.55 64.5703L256.383 78.6976" stroke="#6CAFFD" stroke-width="3" stroke-linecap="round" stroke-linejoin="round"/>
<path d="M242.223 64.5703L240.391 78.6976" stroke="#6CAFFD" stroke-width="4" stroke-linecap="round" stroke-linejoin="round"/>
<path d="M248.406 41.4688L248.406 50.009" stroke="#6CAFFD" stroke-width="2" stroke-linecap="round" stroke-linejoin="round"/>
<path d="M248.406 53.0781L248.406 61.4475" stroke="#6CAFFD" stroke-width="2" stroke-linecap="round" stroke-linejoin="round"/>
<path d="M248.406 64.5234L248.406 75.4549" stroke="#6CAFFD" stroke-width="2"/>
<mask id="path-30-inside-1_50_63720" fill="white">
<rect x="241.723" y="38.2188" width="13.3269" height="3.17466" rx="1"/>
</mask>
<rect x="241.723" y="38.2188" width="13.3269" height="3.17466" rx="1" fill="#6CAFFD" stroke="#6CAFFD" stroke-width="3" stroke-linecap="round" stroke-linejoin="round" mask="url(#path-30-inside-1_50_63720)"/>
<mask id="path-31-inside-2_50_63720" fill="white">
<rect x="240.391" y="49.9688" width="15.9923" height="3.17466" rx="1"/>
</mask>
<rect x="240.391" y="49.9688" width="15.9923" height="3.17466" rx="1" fill="#6CAFFD" stroke="#6CAFFD" stroke-width="3" stroke-linecap="round" stroke-linejoin="round" mask="url(#path-31-inside-2_50_63720)"/>
<mask id="path-32-inside-3_50_63720" fill="white">
<rect x="239.391" y="61.3984" width="18.6576" height="3.17466" rx="1"/>
</mask>
<rect x="239.391" y="61.3984" width="18.6576" height="3.17466" rx="1" fill="#6CAFFD" stroke="#6CAFFD" stroke-width="3" stroke-linecap="round" stroke-linejoin="round" mask="url(#path-32-inside-3_50_63720)"/>
<path fill-rule="evenodd" clip-rule="evenodd" d="M262.782 78.6953H234.935V80.885H236.605V83.3492H234.936V86.6338H262.783V83.3492H261.112V80.885H262.782V78.6953ZM237.72 83.3492V80.885H240.504V83.3492H237.72ZM241.619 83.3492V80.885H244.403V83.3492H241.619ZM245.518 83.3492V80.885H248.302V83.3492H245.518ZM252.2 80.885H249.416V83.3492H252.2V80.885ZM253.315 83.3492V80.885H256.099V83.3492H253.315ZM259.998 80.885H257.214V83.3492H259.998V80.885Z" fill="#6CAFFD"/>
<path d="M234.935 78.6953H234.185C234.185 78.2811 234.521 77.9453 234.935 77.9453V78.6953ZM262.782 78.6953V77.9453C263.197 77.9453 263.532 78.2811 263.532 78.6953H262.782ZM234.935 80.885V81.635C234.521 81.635 234.185 81.2992 234.185 80.885H234.935ZM236.605 80.885V80.135C237.02 80.135 237.355 80.4708 237.355 80.885H236.605ZM236.605 83.3492H237.355C237.355 83.7634 237.02 84.0992 236.605 84.0992V83.3492ZM234.936 83.3492H234.186C234.186 82.935 234.522 82.5992 234.936 82.5992V83.3492ZM234.936 86.6338V87.3838C234.522 87.3838 234.186 87.048 234.186 86.6338H234.936ZM262.783 86.6338H263.533C263.533 87.048 263.197 87.3838 262.783 87.3838V86.6338ZM262.783 83.3492V82.5992C263.197 82.5992 263.533 82.935 263.533 83.3492H262.783ZM261.112 83.3492V84.0992C260.698 84.0992 260.362 83.7634 260.362 83.3492H261.112ZM261.112 80.885H260.362C260.362 80.4708 260.698 80.135 261.112 80.135V80.885ZM262.782 80.885H263.532C263.532 81.2992 263.197 81.635 262.782 81.635V80.885ZM237.72 83.3492V84.0992C237.306 84.0992 236.97 83.7634 236.97 83.3492H237.72ZM237.72 80.885H236.97C236.97 80.4708 237.306 80.135 237.72 80.135V80.885ZM240.504 80.885V80.135C240.918 80.135 241.254 80.4708 241.254 80.885H240.504ZM240.504 83.3492H241.254C241.254 83.7634 240.918 84.0992 240.504 84.0992V83.3492ZM241.619 80.885H240.869C240.869 80.4708 241.204 80.135 241.619 80.135V80.885ZM241.619 83.3492V84.0992C241.204 84.0992 240.869 83.7634 240.869 83.3492H241.619ZM244.403 80.885V80.135C244.817 80.135 245.153 80.4708 245.153 80.885H244.403ZM244.403 83.3492H245.153C245.153 83.7634 244.817 84.0992 244.403 84.0992V83.3492ZM245.518 80.885H244.768C244.768 80.4708 245.104 80.135 245.518 80.135V80.885ZM245.518 83.3492V84.0992C245.104 84.0992 244.768 83.7634 244.768 83.3492H245.518ZM248.302 80.885V80.135C248.716 80.135 249.052 80.4708 249.052 80.885H248.302ZM248.302 83.3492H249.052C249.052 83.7634 248.716 84.0992 248.302 84.0992V83.3492ZM249.416 80.885H248.666C248.666 80.4708 249.002 80.135 249.416 80.135V80.885ZM252.2 80.885V80.135C252.614 80.135 252.95 80.4708 252.95 80.885H252.2ZM249.416 83.3492V84.0992C249.002 84.0992 248.666 83.7634 248.666 83.3492H249.416ZM252.2 83.3492H252.95C252.95 83.7634 252.614 84.0992 252.2 84.0992V83.3492ZM253.315 80.885H252.565C252.565 80.4708 252.901 80.135 253.315 80.135V80.885ZM253.315 83.3492V84.0992C252.901 84.0992 252.565 83.7634 252.565 83.3492H253.315ZM256.099 80.885V80.135C256.513 80.135 256.849 80.4708 256.849 80.885H256.099ZM256.099 83.3492H256.849C256.849 83.7634 256.513 84.0992 256.099 84.0992V83.3492ZM257.214 80.885H256.464C256.464 80.4708 256.8 80.135 257.214 80.135V80.885ZM259.998 80.885V80.135C260.412 80.135 260.748 80.4708 260.748 80.885H259.998ZM257.214 83.3492V84.0992C256.8 84.0992 256.464 83.7634 256.464 83.3492H257.214ZM259.998 83.3492H260.748C260.748 83.7634 260.412 84.0992 259.998 84.0992V83.3492ZM234.935 77.9453H262.782V79.4453H234.935V77.9453ZM234.185 80.885V78.6953H235.685V80.885H234.185ZM236.605 81.635H234.935V80.135H236.605V81.635ZM237.355 80.885V83.3492H235.855V80.885H237.355ZM234.936 82.5992H236.605V84.0992H234.936V82.5992ZM234.186 86.6338V83.3492H235.686V86.6338H234.186ZM262.783 87.3838H234.936V85.8838H262.783V87.3838ZM263.533 83.3492V86.6338H262.033V83.3492H263.533ZM261.112 82.5992H262.783V84.0992H261.112V82.5992ZM261.862 80.885V83.3492H260.362V80.885H261.862ZM262.782 81.635H261.112V80.135H262.782V81.635ZM263.532 78.6953V80.885H262.032V78.6953H263.532ZM236.97 83.3492V80.885H238.47V83.3492H236.97ZM240.504 81.635H237.72V80.135H240.504V81.635ZM239.754 83.3492V80.885H241.254V83.3492H239.754ZM237.72 82.5992H240.504V84.0992H237.72V82.5992ZM242.369 80.885V83.3492H240.869V80.885H242.369ZM244.403 81.635H241.619V80.135H244.403V81.635ZM243.653 83.3492V80.885H245.153V83.3492H243.653ZM241.619 82.5992H244.403V84.0992H241.619V82.5992ZM246.268 80.885V83.3492H244.768V80.885H246.268ZM248.302 81.635H245.518V80.135H248.302V81.635ZM247.552 83.3492V80.885H249.052V83.3492H247.552ZM245.518 82.5992H248.302V84.0992H245.518V82.5992ZM249.416 80.135H252.2V81.635H249.416V80.135ZM248.666 83.3492V80.885H250.166V83.3492H248.666ZM252.2 84.0992H249.416V82.5992H252.2V84.0992ZM252.95 80.885V83.3492H251.45V80.885H252.95ZM254.065 80.885V83.3492H252.565V80.885H254.065ZM256.099 81.635H253.315V80.135H256.099V81.635ZM255.349 83.3492V80.885H256.849V83.3492H255.349ZM253.315 82.5992H256.099V84.0992H253.315V82.5992ZM257.214 80.135H259.998V81.635H257.214V80.135ZM256.464 83.3492V80.885H257.964V83.3492H256.464ZM259.998 84.0992H257.214V82.5992H259.998V84.0992ZM260.748 80.885V83.3492H259.248V80.885H260.748Z" fill="#6CAFFD"/>
<path d="M240.785 86.6406V103.885" stroke="#6CAFFD" stroke-width="1.5"/>
<path d="M241.621 86.6406V103.885H247.131V86.6406" stroke="#6CAFFD" stroke-width="4" stroke-linecap="round" stroke-linejoin="round"/>
<path d="M237.443 86.6406V103.885" stroke="#6CAFFD" stroke-width="1.5"/>
<path d="M236.607 86.6406V103.885" stroke="#6CAFFD" stroke-width="4" stroke-linecap="round" stroke-linejoin="round"/>
<path d="M240.785 86.6406L237.443 91.9194" stroke="#6CAFFD" stroke-width="2"/>
<path d="M240.785 92.625L237.443 97.9038" stroke="#6CAFFD" stroke-width="2"/>
<path d="M240.785 98.6094L237.443 103.888" stroke="#6CAFFD" stroke-width="2" stroke-linecap="round" stroke-linejoin="round"/>
<path d="M237.443 86.6406L240.785 91.9194" stroke="#6CAFFD" stroke-width="2" stroke-linecap="round" stroke-linejoin="round"/>
<path d="M237.443 92.625L240.785 97.9038" stroke="#6CAFFD" stroke-width="2" stroke-linecap="round" stroke-linejoin="round"/>
<path d="M237.443 98.6094L240.785 103.888" stroke="#6CAFFD" stroke-width="2" stroke-linecap="round" stroke-linejoin="round"/>
<path d="M259.998 86.6406V103.885" stroke="#6CAFFD" stroke-width="1.5" stroke-linecap="round" stroke-linejoin="round"/>
<path d="M260.836 86.6406V103.885" stroke="#6CAFFD" stroke-width="4" stroke-linecap="round" stroke-linejoin="round"/>
<path d="M256.656 86.6406V103.885" stroke="#6CAFFD" stroke-width="1.5" stroke-linecap="round" stroke-linejoin="round"/>
<path d="M255.822 86.6406V103.885H249.663V86.6406" stroke="#6CAFFD" stroke-width="4" stroke-linecap="round" stroke-linejoin="round"/>
<path d="M259.998 86.6406L256.656 91.9194" stroke="#6CAFFD" stroke-width="2" stroke-linecap="round" stroke-linejoin="round"/>
<path d="M260 92.625L256.658 97.9038" stroke="#6CAFFD" stroke-width="2" stroke-linecap="round" stroke-linejoin="round"/>
<path d="M260 98.6094L256.658 103.888" stroke="#6CAFFD" stroke-width="2" stroke-linecap="round" stroke-linejoin="round"/>
<path d="M256.656 86.6406L259.998 91.9194" stroke="#6CAFFD" stroke-width="2" stroke-linecap="round" stroke-linejoin="round"/>
<path d="M256.656 92.625L259.998 97.9038" stroke="#6CAFFD" stroke-width="2" stroke-linecap="round" stroke-linejoin="round"/>
<path d="M256.656 98.6094L259.998 103.888" stroke="#6CAFFD" stroke-width="2" stroke-linecap="round" stroke-linejoin="round"/>
<path d="M185.04 81.8979C186.998 87.6883 180.632 83.4122 178.605 86.9108C176.578 90.4095 178.848 98.936 178.848 98.936H176.25C176.25 98.936 176.091 89.0489 176.557 86.9108C177.024 84.7728 175.519 87.3827 171.942 86.9108C168.365 86.4389 170.032 84.5784 170.435 83.6066C170.755 82.8352 170.424 82.731 169.232 81.4726C168.039 80.2141 170.184 78.0698 171.942 77.8349C173.657 77.6056 172.095 75.991 175.418 74.0335C179.625 71.5554 178.605 76.0262 180.961 77.2148C183.178 76.8036 187.762 79.1361 185.04 81.8979Z" fill="#6CAFFD"/>
<path d="M178.605 86.9108L179.254 87.2868L178.605 86.9108ZM185.04 81.8979L184.329 82.1382L184.181 81.7005L184.506 81.3714L185.04 81.8979ZM180.961 77.2148L181.098 77.9522L180.849 77.9984L180.623 77.8844L180.961 77.2148ZM175.418 74.0335L175.799 74.6797L175.799 74.6797L175.418 74.0335ZM171.942 77.8349L172.041 78.5782L172.041 78.5782L171.942 77.8349ZM169.232 81.4726L168.687 81.9884L168.687 81.9884L169.232 81.4726ZM170.435 83.6066L169.743 83.3191V83.3191L170.435 83.6066ZM171.942 86.9108L172.04 86.1673L172.04 86.1673L171.942 86.9108ZM176.557 86.9108L177.29 87.0708L176.557 86.9108ZM178.848 98.936L179.572 98.743C179.632 98.9682 179.584 99.2083 179.442 99.393C179.3 99.5777 179.081 99.686 178.848 99.686V98.936ZM176.25 98.936V99.686C175.841 99.686 175.507 99.3575 175.5 98.9481L176.25 98.936ZM177.956 86.5348C178.603 85.4188 179.602 84.9419 180.584 84.7323C181.51 84.5349 182.565 84.5558 183.274 84.515C183.66 84.4928 183.958 84.4554 184.184 84.3876C184.403 84.3221 184.498 84.2452 184.547 84.1803C184.649 84.045 184.816 83.5772 184.329 82.1382L185.75 81.6576C186.243 83.1138 186.349 84.2829 185.744 85.0837C185.44 85.4868 185.021 85.7028 184.614 85.8247C184.214 85.9443 183.774 85.9887 183.36 86.0125C182.469 86.0638 181.674 86.0336 180.897 86.1993C180.177 86.3529 179.621 86.6536 179.254 87.2868L177.956 86.5348ZM184.506 81.3714C185.072 80.797 185.162 80.3535 185.12 80.0441C185.073 79.702 184.839 79.3202 184.381 78.9493C183.93 78.584 183.328 78.2859 182.707 78.1047C182.078 77.9213 181.501 77.8776 181.098 77.9522L180.824 76.4774C181.531 76.3464 182.357 76.4401 183.127 76.6647C183.904 76.8915 184.693 77.272 185.325 77.7836C185.95 78.2897 186.489 78.9832 186.606 79.8423C186.727 80.7341 186.369 81.6179 185.574 82.4244L184.506 81.3714ZM180.623 77.8844C179.837 77.4878 179.367 76.8314 179.036 76.2295C178.87 75.9294 178.728 75.6194 178.602 75.3501C178.471 75.0699 178.358 74.8341 178.238 74.6308C177.998 74.2243 177.812 74.0925 177.604 74.0577C177.339 74.0134 176.809 74.0847 175.799 74.6797L175.037 73.3873C176.131 72.7433 177.051 72.4441 177.852 72.5783C178.709 72.7219 179.204 73.3175 179.529 73.8675C179.692 74.1425 179.833 74.4422 179.961 74.7149C180.093 74.9984 180.213 75.2586 180.35 75.5061C180.621 75.9993 180.907 76.3475 181.299 76.5452L180.623 77.8844ZM175.799 74.6797C175.029 75.133 174.578 75.5454 174.297 75.8924C174.021 76.2344 173.886 76.5421 173.784 76.8322C173.757 76.9081 173.733 76.9819 173.707 77.0608C173.682 77.1368 173.654 77.2207 173.625 77.3022C173.567 77.4626 173.487 77.6576 173.36 77.8431C173.063 78.2764 172.622 78.5007 172.041 78.5782L171.843 77.0915C171.995 77.0711 172.063 77.0414 172.088 77.0279C172.104 77.019 172.11 77.0133 172.122 76.9958C172.142 76.9671 172.17 76.9127 172.214 76.7928C172.235 76.7341 172.256 76.67 172.282 76.5907C172.308 76.5144 172.337 76.4256 172.37 76.3323C172.506 75.9454 172.712 75.4681 173.131 74.9496C173.546 74.4362 174.145 73.9127 175.037 73.3873L175.799 74.6797ZM172.041 78.5782C171.379 78.6667 170.564 79.1463 170.055 79.7522C169.805 80.0497 169.678 80.3208 169.646 80.5244C169.618 80.696 169.652 80.8258 169.776 80.9567L168.687 81.9884C168.215 81.4901 168.07 80.8799 168.164 80.2882C168.254 79.7285 168.549 79.2128 168.906 78.7876C169.611 77.948 170.747 77.2379 171.843 77.0915L172.041 78.5782ZM169.776 80.9567C170.07 81.267 170.3 81.495 170.505 81.705C170.695 81.8999 170.882 82.0978 171.019 82.298C171.169 82.5173 171.289 82.7783 171.299 83.0992C171.31 83.3963 171.223 83.6652 171.128 83.894L169.743 83.3191C169.808 83.1622 169.8 83.1289 169.8 83.1501C169.802 83.1952 169.824 83.2069 169.782 83.1464C169.728 83.0669 169.628 82.9546 169.431 82.7519C169.248 82.5643 168.989 82.3074 168.687 81.9884L169.776 80.9567ZM171.128 83.894C171.062 84.053 170.976 84.2178 170.899 84.361C170.817 84.5147 170.742 84.6529 170.67 84.7983C170.521 85.1009 170.45 85.317 170.446 85.4694C170.443 85.559 170.454 85.6295 170.592 85.7327C170.78 85.8741 171.195 86.0557 172.04 86.1673L171.844 87.6544C170.901 87.53 170.183 87.302 169.69 86.9316C169.146 86.5227 168.929 85.979 168.946 85.4229C168.962 84.9297 169.16 84.469 169.325 84.1347C169.41 83.9616 169.503 83.7913 169.576 83.6554C169.654 83.509 169.708 83.403 169.743 83.3191L171.128 83.894ZM172.04 86.1673C173.62 86.3757 174.733 85.9111 175.472 85.5961C175.648 85.5211 175.848 85.4341 176.021 85.3801C176.11 85.3521 176.225 85.3216 176.352 85.3111C176.477 85.3006 176.666 85.305 176.862 85.3996C177.328 85.6245 177.384 86.096 177.39 86.2969C177.396 86.5277 177.35 86.7961 177.29 87.0708L175.825 86.7508C175.881 86.4911 175.891 86.3733 175.89 86.3357C175.888 86.2683 175.875 86.5892 176.21 86.7507C176.341 86.8137 176.449 86.8082 176.477 86.8059C176.506 86.8034 176.509 86.799 176.47 86.8113C176.386 86.8377 176.267 86.8878 176.06 86.9759C175.269 87.3135 173.841 87.9179 171.844 87.6544L172.04 86.1673ZM179.254 87.2868C178.834 88.0113 178.606 89.0617 178.537 90.3076C178.468 91.5386 178.557 92.8844 178.711 94.1444C178.864 95.4012 179.08 96.5539 179.258 97.3934C179.347 97.8126 179.426 98.1524 179.483 98.3863C179.511 98.5032 179.534 98.5936 179.55 98.6542C179.557 98.6845 179.563 98.7073 179.567 98.7222C179.569 98.7297 179.57 98.7352 179.571 98.7387C179.572 98.7404 179.572 98.7417 179.572 98.7424C179.572 98.7428 179.572 98.743 179.573 98.7431C179.573 98.7432 179.573 98.7431 179.573 98.7432C179.573 98.7431 179.572 98.743 178.848 98.936C178.123 99.1289 178.123 99.1288 178.123 99.1286C178.123 99.1285 178.123 99.1283 178.123 99.1281C178.123 99.1276 178.122 99.1271 178.122 99.1264C178.122 99.1251 178.121 99.1232 178.121 99.1209C178.12 99.1161 178.118 99.1093 178.116 99.1006C178.111 99.083 178.104 99.0576 178.096 99.0245C178.079 98.9585 178.055 98.8623 178.025 98.7393C177.966 98.4932 177.883 98.1395 177.791 97.7046C177.607 96.8361 177.382 95.6385 177.222 94.3264C177.062 93.0174 176.963 91.5756 177.039 90.2238C177.114 88.887 177.362 87.5596 177.956 86.5348L179.254 87.2868ZM177.29 87.0708C177.19 87.5309 177.113 88.4841 177.062 89.7227C177.012 90.9379 176.988 92.3645 176.979 93.7302C176.969 95.0949 176.975 96.3937 176.982 97.3517C176.986 97.8306 176.991 98.224 176.994 98.4975C176.996 98.6343 176.997 98.7411 176.998 98.8136C176.999 98.8498 176.999 98.8775 177 98.8961C177 98.9053 177 98.9123 177 98.917C177 98.9193 177 98.9211 177 98.9222C177 98.9228 177 98.9232 177 98.9235C177 98.9236 177 98.9237 177 98.9238C177 98.9238 177 98.9239 176.25 98.936C175.5 98.9481 175.5 98.948 175.5 98.9479C175.5 98.9478 175.5 98.9477 175.5 98.9476C175.5 98.9472 175.5 98.9468 175.5 98.9461C175.5 98.9449 175.5 98.943 175.5 98.9406C175.5 98.9357 175.5 98.9285 175.5 98.919C175.499 98.9001 175.499 98.872 175.499 98.8353C175.497 98.7619 175.496 98.6542 175.494 98.5164C175.491 98.2409 175.486 97.8452 175.482 97.3637C175.475 96.401 175.469 95.0944 175.479 93.7201C175.488 92.3469 175.512 90.9008 175.563 89.6608C175.613 88.4442 175.692 87.3598 175.825 86.7508L177.29 87.0708ZM176.25 98.186H178.848V99.686H176.25V98.186Z" fill="#6CAFFD"/>
<path d="M196.117 88.5147C196.703 91.8638 192.724 90.2919 191.308 92.404C189.893 94.5162 191.308 98.4642 191.308 98.4642H190.194C190.194 98.4642 189.868 94.0366 190.194 92.7459C190.52 91.4551 188.973 91.0873 188.191 91.0873C186.643 91.0873 186.643 89.7285 186.971 89.5343C187.488 89.2281 188.249 88.741 187.417 87.9813C186.584 87.2216 185.743 86.2037 186.971 86.0619C188.168 85.9235 186.971 84.487 189.398 83.767C193.607 82.7399 192.06 85.6518 193.607 85.4577C195.156 85.2094 197.992 86.6224 196.117 88.5147Z" fill="#6CAFFD" stroke="#6CAFFD" stroke-width="1.5" stroke-linecap="round" stroke-linejoin="round"/>
</g>
</g>
<path d="M123.166 133.392C122.754 131.285 123.164 128.895 122.596 126.026C122.018 123.23 120.759 120.653 117.779 118.759C115.941 116.654 120.229 112.815 122.36 116.832L124.212 119.871C125.651 122.231 125.232 119.491 128.52 115.363C129.806 113.986 131.598 115.613 131.295 116.839C133.154 115.427 134.104 117.654 133.261 118.74C134.013 117.684 136.081 118.286 134.993 120.858C136.696 119.844 137.803 122.455 136.213 124.545C133.831 128.415 133.451 128.697 130.505 131.598C129.309 134.598 130.858 137.112 131.353 138.902C130.505 140.162 128.076 142.373 124.775 141.063L123.166 133.392Z" fill="white" stroke="#146BB8" stroke-width="1.5" stroke-linejoin="round"/>
<path d="M126.415 122.386C126.711 122.595 127.101 122.711 127.426 122.59C127.751 122.469 128.023 122.114 128.659 121.116C129.295 120.118 130.295 118.477 131.295 116.836" stroke="#146BB8" stroke-width="1.5" stroke-linecap="round" stroke-linejoin="round"/>
<path d="M127.763 124.314C127.94 124.509 128.182 124.611 128.539 124.642C128.897 124.673 129.37 124.635 129.911 124.114C130.452 123.593 131.06 122.589 131.63 121.613C132.199 120.637 132.729 119.69 133.259 118.742" stroke="#146BB8" stroke-width="1.5" stroke-linecap="round" stroke-linejoin="round"/>
<path d="M130.491 125.596C130.853 125.949 131.551 125.781 132.193 125.349C132.836 124.916 133.36 123.811 133.807 122.951C134.253 122.09 134.624 121.474 134.994 120.858" stroke="#146BB8" stroke-width="1.5" stroke-linecap="round" stroke-linejoin="round"/>
<path d="M133.199 126.577C133.939 127.355 135.024 126.472 135.658 125.425" stroke="#146BB8" stroke-width="1.5" stroke-linecap="round" stroke-linejoin="round"/>
<path d="M89.431 144.511C84.2589 141.279 74.3125 140.068 74.3125 140.068L85.8503 164.707C85.8503 164.707 109.382 184.499 123.249 177.633C136.182 171.229 133.525 145.191 132.148 136.015C131.865 134.131 130.232 132.797 128.326 132.797H125.979C123.508 132.797 121.598 135.019 121.766 137.484C122.197 143.771 121.991 154.57 116.087 158.244C106.135 164.439 99.373 150.722 89.431 144.511Z" fill="#6CAFFD"/>
<path d="M86.8402 148.453L76.5937 140.82L52.948 143.633L40.731 155.283C37.7756 170.87 38.8802 192.938 51.3638 208.356L107.371 207.329C99.2681 190.653 89.9413 169.203 86.8402 148.453Z" fill="#6CAFFD"/>
<path d="M87.5357 154.516C89.1174 165.251 91.0429 171.245 95.5645 181.908" stroke="#3859D4" stroke-width="1.5" stroke-linecap="round"/>
<path d="M40.3079 182.383C41.8701 193.127 44.8158 198.159 49.2812 208.831" stroke="#3859D4" stroke-width="1.5" stroke-linecap="round"/>
<path d="M56.5246 131.961C56.9053 134.916 57.6666 141.616 58.7602 145.058C59.8538 148.499 61.2799 149.474 63.165 149.964C65.05 150.455 67.3943 150.462 69.0244 150.145C70.6545 149.828 71.5704 149.186 71.4737 146.309C71.377 143.432 70.2668 137.53 69.6032 134.768C68.9396 132.005 68.7306 131.608 67.1483 130.916C65.566 130.224 62.6149 129.245 60.6654 128.64C58.7158 128.034 57.0136 127.616 56.4274 127.739C55.8411 127.863 55.993 128.434 56.0689 128.72C56.1447 129.005 56.144 129.005 56.5247 131.96L56.5246 131.961Z" fill="white" stroke="#146BB8" stroke-width="1.5"/>
<path d="M63.777 132.813C65.9186 133.383 67.3926 133.498 68.9147 134.393C69.5368 136.161 70.2234 141.007 70.6555 142.954C67.227 143.895 63.8763 143.293 60.5247 141.765C58.7251 140.945 58.6432 140.742 58.1718 138.946C58.0141 138.346 57.5596 135.438 57.3569 135.14C56.5865 132.203 59.8049 131.756 63.777 132.813Z" fill="#C0DFFB"/>
<path d="M51.0742 127.326C50.0511 128.69 49.7933 130.152 48.913 129.851C48.0328 129.551 46.7045 127.728 45.4025 124.713C44.1005 121.697 43.3672 118.747 43.1427 114.704C42.9182 110.661 43.2992 105.915 44.5601 103.493C45.821 101.072 47.9623 100.976 49.7642 102.24C51.5661 103.504 53.0277 106.128 53.9562 109.888C54.8847 113.647 55.2802 118.541 54.5831 121.62C53.8859 124.699 52.0972 125.963 51.0742 127.326Z" fill="#146BB8"/>
<path d="M56.8326 96.7081C56.5787 96.7424 56.3864 96.8449 56.0786 97.0085C55.2581 97.4448 53.6189 98.3164 51.8881 100.041C50.1573 101.765 48.3342 104.342 47.6087 108.523C47.3077 110.258 47.3428 111.431 47.3703 113.508C46.7739 112.629 45.94 112.19 44.8456 112.451C42.176 112.872 40.3518 115.551 40.7711 118.434C41.1904 121.317 42.968 123.348 45.6375 122.927C47.0614 122.625 47.5239 122.231 47.8217 121.457C47.9166 122.155 47.921 122.275 48.0351 122.924C48.8174 127.357 50.0111 130.439 51.8211 132.769C53.6312 135.098 56.0586 136.677 59.0431 137.371C62.0276 138.065 65.5323 137.876 68.3705 137.023C71.2088 136.169 73.3321 134.633 74.7262 132.991C76.1204 131.349 76.8415 129.56 77.022 127.692C77.2024 125.824 76.8408 123.878 76.2058 120.994C75.5707 118.111 74.6618 114.29 73.9326 110.624C73.2034 106.959 72.6539 103.449 69.8443 101.132C67.0347 98.8151 61.9664 97.6935 59.4327 97.1329C57.8491 96.7826 57.2551 96.651 56.832 96.7082L56.8326 96.7081Z" fill="white" stroke="#146BB8" stroke-width="1.5" stroke-linecap="round" stroke-linejoin="round"/>
<path d="M43.8737 117.242C44.964 117.464 46.0545 117.686 46.5992 117.941C47.1439 118.196 47.1411 118.483 46.7953 118.678C46.4494 118.873 45.7635 118.975 45.2496 119.116C44.7357 119.257 44.3941 119.436 44.0543 119.613" stroke="#146BB8" stroke-width="1.5" stroke-linecap="round" stroke-linejoin="round"/>
<path d="M62.3821 118.046C61.7827 118.137 61.2232 117.724 61.1324 117.125C61.0417 116.526 61.454 115.966 62.0534 115.875C62.6528 115.785 63.2123 116.197 63.303 116.796C63.3938 117.396 62.9815 117.955 62.3821 118.046Z" fill="#146BB8"/>
<path d="M62.1684 111.057C62.1889 111.07 62.2269 111.098 62.2955 111.146C62.3638 111.194 62.4627 111.263 62.6058 111.549C62.7488 111.835 62.9347 112.336 62.7886 112.635C62.6424 112.933 62.1633 113.03 61.0309 113.345C59.8984 113.659 58.1108 114.192 56.9825 114.513C55.8542 114.834 55.3845 114.943 55.1359 114.831C54.8873 114.72 54.8566 114.389 55.138 113.938C55.4196 113.487 56.0159 112.916 56.9898 112.362C57.9636 111.809 59.3158 111.274 60.2384 111.057C61.161 110.839 61.6534 110.941 61.8488 110.98C62.0443 111.019 61.9702 111.002 61.9702 111.002C61.9702 111.002 62.0611 111.023 62.1047 111.033C62.1482 111.043 62.1487 111.043 62.1681 111.057L62.1684 111.057Z" fill="#146BB8"/>
<path d="M66.5125 110.089C66.5019 110.107 66.4829 110.142 66.4481 110.204C66.4133 110.266 66.363 110.355 66.3551 110.644C66.3472 110.933 66.3816 111.418 66.5956 111.629C66.8096 111.839 67.2037 111.775 68.1653 111.698C69.1268 111.62 70.6573 111.528 71.6178 111.457C72.5784 111.386 72.9696 111.335 73.1179 111.164C73.2663 110.993 73.1739 110.7 72.8051 110.4C72.4361 110.1 71.7886 109.795 70.8632 109.619C69.9378 109.444 68.7342 109.401 67.9644 109.498C67.1947 109.594 66.8596 109.832 66.7262 109.925C66.5928 110.019 66.6427 109.982 66.6427 109.982C66.6427 109.982 66.5816 110.027 66.5522 110.049C66.5229 110.071 66.5225 110.071 66.5127 110.089L66.5125 110.089Z" fill="#146BB8"/>
<path d="M70.9374 116.217C71.5368 116.126 71.9491 115.567 71.8584 114.967C71.7676 114.368 71.2081 113.956 70.6087 114.047C70.0094 114.137 69.597 114.697 69.6878 115.296C69.7786 115.896 70.3381 116.308 70.9374 116.217Z" fill="#146BB8"/>
<path d="M73.8071 105.695C71.5705 106.171 68.1489 105.893 64.7185 106.109C61.2881 106.325 57.8493 107.034 55.229 107.775C52.6088 108.515 50.7731 109.302 50.0991 110.988C49.4252 112.675 49.8948 115.268 49.8212 116.434C49.7476 117.6 49.1313 117.338 48.3821 116.692C47.633 116.046 46.7506 115.014 46.1294 113.07C45.5081 111.127 45.1484 108.273 45.7972 105.242C46.446 102.211 48.1039 99.0039 50.1773 96.9508C52.2507 94.8977 54.7398 93.9993 57.3071 93.6737C59.8743 93.348 62.5193 93.5956 64.9887 94.266C67.458 94.9363 69.7513 96.0296 71.3616 97.2454C72.972 98.4613 73.899 99.7993 74.9159 100.738C75.9329 101.678 77.0403 102.218 77.0678 103.104C77.0954 103.989 76.0436 105.219 73.8071 105.695Z" fill="#146BB8"/>
<path d="M68.373 121.195C67.8667 122.14 67.3604 123.086 66.4064 123.419C65.4524 123.752 64.0504 123.473 63.118 123.055C62.1856 122.637 61.7227 122.08 61.2597 121.522" stroke="#FF5555" stroke-width="1.5" stroke-linecap="round" stroke-linejoin="round"/>
<path d="M68.1085 158.954C67.1605 159.675 68.1862 162.259 67.5847 166.075C65.2849 180.666 83.1285 189.034 88.7913 199.652C89.7312 201.414 91.7557 204.68 92.8278 205.418C93.8998 206.156 94.7549 205.224 95.8037 204.081C96.8525 202.939 96.8077 200.998 97.0364 199.452C97.9608 186.818 73.4792 179.227 73.9076 166.075C74.0181 162.681 72.7511 160.552 71.8441 159.309C70.9372 158.065 69.0566 158.232 68.1085 158.954Z" fill="#D92534"/>
<path d="M70.8304 153.808C72.5207 153.775 74.2838 153.841 74.8907 155.271C75.4976 156.701 74.9485 159.495 74.5291 161.208C74.1096 162.921 73.82 163.553 72.5578 163.672C71.2955 163.792 69.0606 163.398 67.9258 162.586C66.7911 161.775 66.7569 160.545 66.6036 159.061C66.4504 157.578 66.1781 155.841 66.8505 154.907C67.523 153.973 69.1402 153.841 70.8304 153.808Z" fill="#BE1926"/>
<path d="M87.0096 118.645C91.5737 123.874 99.5127 124.413 104.742 119.849C109.971 115.285 110.51 107.346 105.946 102.117C101.382 96.8874 93.4426 96.3484 88.2135 100.913C82.9845 105.477 82.4454 113.416 87.0096 118.645Z" fill="#6CAFFD"/>
<path d="M91.82 118.7C92.1326 117.649 88.4547 113.769 87.3888 114.024C86.3229 114.28 84.7968 119.409 85.5502 120.204C86.3035 120.999 91.5075 119.75 91.82 118.7Z" fill="#6CAFFD"/>
<path d="M89.2188 111.193L93.9012 115.393L102.463 106.336" stroke="white" stroke-width="5" stroke-linecap="round" stroke-linejoin="round"/>
<path d="M252.608 31.4995C257.26 36.8297 265.353 37.3792 270.683 32.7267C276.013 28.0743 276.563 19.9816 271.91 14.6513C267.258 9.32105 259.165 8.77158 253.835 13.4241C248.505 18.0765 247.955 26.1692 252.608 31.4995Z" fill="#6CAFFD"/>
<path d="M257.511 31.5575C257.83 30.4866 254.081 26.5312 252.994 26.7919C251.908 27.0526 250.352 32.2809 251.12 33.091C251.888 33.9012 257.193 32.6283 257.511 31.5575Z" fill="#6CAFFD"/>
<path d="M256.516 23.5441L261.198 27.7444L269.76 18.6875" stroke="white" stroke-width="5" stroke-linecap="round" stroke-linejoin="round"/>
<path d="M229.001 41.8826C227.907 41.7956 227.091 40.8382 227.177 39.7442C227.264 38.6501 228.222 37.8337 229.316 37.9207C230.41 38.0076 231.226 38.965 231.139 40.0591C231.052 41.1531 230.095 41.9695 229.001 41.8826Z" fill="white"/>
<path d="M61.1485 222.761C72.5382 219.651 80.1313 217.196 84.1566 208.978C85.294 206.655 88.9665 205.774 91.0657 207.284C95.3876 210.394 100.98 212.591 105.934 214.065C108.115 214.714 108.96 217.411 107.364 219.032C97.1684 229.387 82.1956 240.294 73.753 237.4C67.6501 235.308 63.1374 232.972 59.3843 226.873C58.4021 225.277 59.3405 223.254 61.1485 222.761Z" fill="white" stroke="#146BB8" stroke-width="1.5"/>
<path d="M64.6989 223.98C75.9911 219.688 82.6694 215.859 90.5207 208.618C91.8696 207.375 94.006 207.561 95.1428 209.001C98.4943 213.247 101.333 215.663 106.957 219.372C108.615 220.465 108.816 222.831 107.256 224.062C95.6603 233.207 79.9653 239.445 76.5234 238.361C76.3007 238.291 76.0879 238.178 75.8676 238.101C70.1283 236.092 68.3076 234.325 63.4696 228.84C62.0654 227.249 62.7146 224.734 64.6989 223.98Z" fill="white" stroke="#146BB8" stroke-width="1.5"/>
<path d="M62.7723 212.397C64.2364 212.85 67.1649 213.755 69.4985 216.005C71.8321 218.254 73.5689 221.845 74.804 224.005C76.0391 226.165 76.7701 226.89 77.2945 227.108C77.819 227.327 78.1356 227.038 78.2722 226.7C78.4089 226.362 78.366 225.976 78.5264 226.195C78.6868 226.415 79.0504 227.239 79.5219 227.663C79.9934 228.087 80.5709 228.109 80.8886 227.855C81.2063 227.6 81.2632 227.07 81.2175 226.65C81.1719 226.23 81.0238 225.919 81.0987 226.042C81.1736 226.165 81.4714 226.721 81.8379 227.004C82.2042 227.287 82.6382 227.297 82.8812 227.111C83.1242 226.925 83.1755 226.543 83.1568 226.123C83.1381 225.703 83.0493 225.244 82.8945 224.88C82.7395 224.516 82.5185 224.247 82.6229 224.309C82.727 224.371 83.1556 224.764 83.6817 224.817C84.2079 224.87 84.8309 224.582 84.2954 223.465C83.7598 222.347 82.0652 220.399 81.0032 219.151C79.9411 217.904 79.5113 217.358 79.533 217.216C79.5546 217.075 80.0277 217.338 80.6201 217.66C81.2124 217.981 81.9232 218.36 82.3417 218.215C82.7602 218.071 82.8858 217.403 82.475 216.749C82.0642 216.096 81.1169 215.457 80.1296 214.674C79.1423 213.891 78.1149 212.964 77.2851 212.262C76.4552 211.561 75.8225 211.086 75.0385 210.873C74.2544 210.66 73.3191 210.709 71.4482 210.052C69.5773 209.394 66.776 208.031 65.9465 207.737C65.117 207.443 66.2611 208.218 65.2112 208.428C64.1612 208.637 60.9133 208.281 59.8967 208.773C58.8802 209.266 60.094 210.605 60.701 211.274C61.308 211.944 61.308 211.944 62.7722 212.397L62.7723 212.397Z" fill="white" stroke="#146BB8" stroke-width="1.5"/>
<path d="M68.5155 209.883L67.0788 213.517C66.62 214.677 65.4922 215.435 64.2452 215.401C45.3076 214.891 23.6369 211.053 20.3522 192.781C18.8928 184.663 21.7143 168.089 33.631 155.911C39.764 149.644 44.4117 147.185 50.85 143.674C53.139 142.425 55.8993 144.45 55.3496 146.999L51.905 162.969C51.7572 163.654 51.3788 164.262 50.8426 164.713C47.29 167.702 33.7003 179.939 36.0141 190.413C38.4247 201.325 57.3314 204.659 65.8843 205.615C67.9315 205.844 69.273 207.968 68.5155 209.883Z" fill="#6CAFFD"/>
<path d="M33.631 155.938C21.7143 168.109 18.8928 184.677 20.3522 192.792C23.6369 211.056 45.3078 214.892 64.2455 215.402C65.4923 215.435 66.6201 214.678 67.0789 213.518L68.4979 209.931C69.2605 208.003 67.8981 205.866 65.8364 205.65C57.4049 204.767 39.0926 201.61 36.6953 190.763C34.038 178.739 45.2073 169.124 45.2073 169.124" stroke="#3859D4" stroke-width="1.5" stroke-linecap="round" stroke-linejoin="round"/>
<path d="M58.6088 140.649C60.412 142.305 62.5027 144.264 64.305 145.92C66.1072 147.575 67.0502 148.449 68.6793 148.406C70.608 148.835 73.6942 156.507 64.863 152.521C63.5974 154.199 64.1594 155.407 62.8542 156.952C61.549 158.496 61.1777 158.579 60.7611 158.186C60.3444 157.794 58.6659 157.254 58.0432 155.883C57.4205 154.512 55.9778 152.886 55.3511 150.789C54.7243 148.692 54.2446 146.371 54.0422 145.005C53.8398 143.64 53.9149 143.23 54.2011 142.464C54.4872 141.697 54.9844 140.574 55.2715 139.984C55.5402 139.432 55.8294 139.137 56.4321 138.987C56.6103 138.942 56.7086 138.968 56.7573 138.981C56.8061 138.993 56.8057 138.993 58.6088 140.649Z" fill="#6CAFFD"/>
<path d="M72.5118 138.443C72.3 138.417 71.8754 138.364 71.6177 138.503C71.36 138.643 71.2706 138.976 70.9129 140.67C70.5545 142.365 69.9294 145.421 69.6013 147.028C69.2733 148.635 67.536 148.413 67.5664 148.524C70.1365 156.121 70.9936 152.263 72.3651 149.734C73.9561 150.671 72.9659 149.334 74.6798 150.249C76.3937 151.163 77.5268 152.734 77.809 152.563C78.0912 152.392 78.5684 151.975 78.6227 150.72C78.677 149.465 78.5064 148.862 78.2025 146.877C77.8985 144.892 77.4139 143.067 76.9828 141.911C76.5518 140.755 76.1738 140.269 75.8921 139.981C75.6104 139.694 75.173 139.139 74.3766 138.858C73.0101 138.374 73.8154 138.607 72.5118 138.443Z" fill="#6CAFFD"/>
<path d="M76.7625 140.992C77.763 142.994 78.2573 145.597 78.3385 147.582C78.4198 149.567 78.2059 151.149 77.9236 151.843C77.6413 152.537 77.2914 152.341 76.3353 151.605C75.3792 150.868 73.8175 149.589 72.8765 149.687C71.9356 149.785 71.6153 151.258 71.2951 152.732" stroke="#3859D4" stroke-width="1.5" stroke-linecap="round" stroke-linejoin="round"/>
<path d="M53.975 143.22C54.7219 148.088 56.3811 152.166 57.845 154.337C59.309 156.508 60.687 157.513 61.4657 157.817C62.2444 158.12 62.4228 157.722 62.7842 156.471C63.1458 155.22 63.69 153.117 64.5557 152.547C65.4214 151.977 66.6083 152.939 67.795 153.901" stroke="#3859D4" stroke-width="1.5" stroke-linecap="round" stroke-linejoin="round"/>
<path d="M185.285 43.6202C185.11 42.1056 184.319 40.5766 184.085 38.5125C183.875 36.4961 184.171 34.4815 185.78 32.5579C186.571 30.7373 182.842 29.0633 182.265 32.2402L181.666 34.6954C181.201 36.6025 180.894 34.6579 177.78 32.5723C176.613 31.9175 175.751 33.4045 176.22 34.169C174.658 33.6135 174.495 35.3255 175.299 35.8784C174.563 35.3261 173.293 36.1785 174.583 37.6848C173.212 37.365 173.025 39.3707 174.551 40.4423C176.996 42.5486 177.314 42.6576 179.933 43.9862C181.388 45.7591 180.881 47.7935 180.932 49.1119C181.776 49.7817 183.897 50.755 185.849 49.1576L185.285 43.6202Z" fill="white" stroke="#146BB8" stroke-linejoin="round"/>
<path d="M180.718 36.8769C180.563 37.0827 180.324 37.2453 180.078 37.2334C179.832 37.2215 179.572 37.0395 178.926 36.501C178.281 35.9625 177.251 35.0674 176.22 34.1721" stroke="#146BB8" stroke-linecap="round" stroke-linejoin="round"/>
<path d="M180.218 38.468C180.139 38.6385 179.997 38.7593 179.762 38.8574C179.528 38.9555 179.199 39.0317 178.721 38.7955C178.243 38.5593 177.614 38.0108 177.019 37.473C176.423 36.9352 175.861 36.4083 175.298 35.8811" stroke="#146BB8" stroke-linecap="round" stroke-linejoin="round"/>
<path d="M178.651 39.9232C178.483 40.2398 177.974 40.2765 177.446 40.1223C176.918 39.9682 176.326 39.333 175.838 38.8468C175.35 38.3606 174.967 38.0235 174.584 37.6862" stroke="#146BB8" stroke-linecap="round" stroke-linejoin="round"/>
<path d="M177.028 41.1728C176.695 41.8585 175.77 41.4945 175.115 40.9225" stroke="#146BB8" stroke-linecap="round" stroke-linejoin="round"/>
<path d="M191.567 58.5176C188.534 56.1738 187.55 51.6223 187.264 48.1547C187.076 45.8691 184.974 44.0209 182.725 44.4707C181.133 44.7891 179.988 46.1753 180.078 47.796C180.411 53.7692 182.057 67.5183 190.12 70.3308C197.043 72.7458 203.862 70.3308 203.862 70.3308L210.612 53.6959C210.612 53.6959 208.555 54.0426 207.237 54.4192C205.919 54.7958 203.862 55.6246 203.862 55.6246C203.862 55.6246 194.827 61.0367 191.567 58.5176Z" fill="#0D68B5"/>
<path d="M226.042 98.2973C229.173 88.6959 232.579 82.5911 232.793 71.2957C232.793 71.2957 235.003 63.5261 231.828 59.7236C230.088 57.6388 226.042 55.8662 226.042 55.8662L213.023 53.9375C213.023 53.9375 207.114 54.1949 203.862 55.8662C201.128 57.2714 199.041 67.1972 199.041 67.1972C198.119 79.9381 193.326 87.2151 188.674 98.2973H226.042Z" fill="#0D68B5"/>
<path d="M199.273 70.4271C198.557 69.5425 198.332 68.7573 198.318 66.7188L221.945 70.4271L220.257 74.6746C213.025 76.1211 203.815 75.2735 199.273 70.4271Z" fill="#DBDEE3"/>
<path fill-rule="evenodd" clip-rule="evenodd" d="M195.913 58.9519C199.63 58.1597 203.863 55.624 203.863 55.624C203.863 55.624 205.92 54.7952 207.238 54.4186C208.556 54.042 210.613 53.6953 210.613 53.6953L210.419 54.1734C211.928 53.9855 213.024 53.9378 213.024 53.9378L226.043 55.8664C226.043 55.8664 230.088 57.6391 231.829 59.7238C234.214 62.5817 233.559 67.6803 233.086 70.0372C222.62 73.6456 202.338 76.9981 196.826 65.0257C196.042 63.3239 195.868 60.9944 195.913 58.9519Z" fill="white"/>
<path d="M224.068 40.6922C222.532 40.5702 221.386 39.2262 221.508 37.6903C221.63 36.1545 222.974 35.0084 224.51 35.1305C226.046 35.2526 227.192 36.5966 227.07 38.1324C226.948 39.6683 225.604 40.8143 224.068 40.6922Z" fill="white"/>
<path d="M223.874 46.7358C223.604 48.8344 223.063 53.5923 222.287 56.0363C221.51 58.4802 220.497 59.1721 219.159 59.5206C217.82 59.8691 216.155 59.8742 214.998 59.649C213.84 59.4238 213.19 58.9679 213.258 56.9249C213.327 54.8819 214.115 50.6905 214.587 48.7288C215.058 46.7672 215.206 46.485 216.33 45.9936C217.454 45.5021 219.549 44.8071 220.934 44.377C222.318 43.9469 223.527 43.6502 223.943 43.7375C224.36 43.8253 224.252 44.2312 224.198 44.4339C224.144 44.6366 224.145 44.6366 223.874 46.7352L223.874 46.7358Z" fill="white" stroke="#146BB8" stroke-width="1.5"/>
<path d="M218.724 47.339C217.203 47.7438 216.156 47.8259 215.075 48.4615C214.634 49.7165 214.146 53.1583 213.839 54.5406C216.274 55.2092 218.653 54.7814 221.034 53.6967C222.312 53.1143 222.37 52.9696 222.704 51.6948C222.816 51.2681 223.139 49.2033 223.283 48.9921C223.83 46.906 221.545 46.5883 218.724 47.339Z" fill="#C0DFFB"/>
<path d="M175.722 73.1945C175.574 67.9702 175.75 64.0468 177.89 60.8488C179.328 58.6997 179.19 54.6382 177.338 52.8335C176.076 51.6041 174.915 50.2099 173.887 48.8168C172.537 46.9858 169.713 46.9867 168.701 49.0245C164.968 56.5448 162.095 65.9337 165.047 69.9658C167.089 72.7548 169.017 74.789 172.347 75.962C174.115 76.5845 175.775 75.0678 175.722 73.1945Z" fill="white" stroke="#146BB8"/>
<path d="M174.545 71.0351C175.01 65.2308 175.947 61.1516 178.078 56.3599C178.823 54.6834 178.009 52.7223 176.328 51.9874C174.339 51.1178 172.762 50.1301 170.709 48.5265C169.143 47.3034 166.835 47.8061 166.123 49.6611C163.124 57.4793 161.353 66.2695 162.297 68.2214C162.399 68.4315 162.569 68.5967 162.711 68.7816C164.651 71.2981 166.798 72.2802 170.212 73.7143C172.169 74.5363 174.376 73.151 174.545 71.0351Z" fill="white" stroke="#146BB8"/>
<path d="M181.003 60.907C181.531 61.9773 182.508 64.0952 183.19 66.3657C183.254 66.5784 183.349 66.7806 183.477 66.9626L185.887 70.4064C186.354 71.0733 186.37 71.9565 185.928 72.6399L185.476 73.339C184.745 74.4674 183.132 74.5688 182.267 73.5407L180.631 71.5985C180.321 71.2301 179.885 70.9975 179.421 70.8669C176.24 69.9703 173.471 66.6467 171.053 64.2048C170.054 63.0666 170.709 62.2379 172.81 63.5823L170.958 61.781C170.032 60.8802 170.926 59.9844 171.935 60.7328L173.1 61.5663L171.872 60.1055C170.946 59.2048 171.923 58.1566 173.005 59.1424L175.399 61.4368L174.41 59.9089C173.65 58.7035 174.856 57.9779 175.772 59.2683L179.427 64.0154C179.439 64.032 179.453 64.0474 179.469 64.0615C179.744 64.312 180.171 64.0275 180.045 63.6774L179.385 61.833L179.318 61.5343C179.221 61.0958 179.455 60.651 179.872 60.4836C180.305 60.3098 180.797 60.4884 181.003 60.907Z" fill="white" stroke="#146BB8" stroke-width="1.5" stroke-linejoin="round"/>
<path d="M225.855 43.1614C226.655 44.1086 226.856 45.123 227.546 44.9154C228.236 44.7079 229.278 43.4437 230.3 41.3523C231.322 39.2609 231.898 37.2138 232.077 34.4087C232.256 31.6035 231.961 28.3096 230.975 26.6281C229.989 24.9466 228.312 24.8784 226.899 25.7542C225.487 26.6301 224.34 28.4497 223.61 31.0578C222.879 33.6658 222.566 37.0617 223.11 39.1987C223.654 41.3358 225.054 42.2142 225.855 43.1614Z" fill="#146BB8"/>
<path d="M221.987 22.3062C222.171 22.3302 222.31 22.4016 222.533 22.5158C223.128 22.8201 224.315 23.428 225.569 24.6295C226.822 25.8311 228.142 27.6257 228.665 30.5364C228.882 31.7444 228.855 32.5605 228.834 34.0058C229.267 33.3949 229.872 33.0902 230.665 33.2726C232.6 33.5677 233.92 35.4334 233.614 37.4397C233.308 39.4459 232.018 40.8585 230.083 40.5635C229.051 40.3522 228.716 40.0773 228.501 39.5384C228.432 40.0239 228.428 40.1076 228.345 40.5593C227.775 43.6445 226.908 45.7884 225.594 47.4084C224.28 49.0284 222.519 50.1257 220.355 50.6066C218.191 51.0874 215.651 50.9532 213.594 50.3569C211.537 49.7605 209.999 48.6895 208.99 47.5458C207.98 46.4022 207.459 45.1561 207.329 43.8558C207.2 42.5556 207.463 41.2016 207.926 39.1952C208.388 37.1887 209.05 34.5299 209.581 31.9792C210.112 29.4284 210.513 26.9859 212.551 25.3754C214.59 23.765 218.265 22.9881 220.102 22.5998C221.25 22.3571 221.681 22.2661 221.987 22.3062L221.987 22.3062Z" fill="white" stroke="#146BB8" stroke-linecap="round" stroke-linejoin="round"/>
<path d="M231.053 36.1848C230.402 36.3912 229.751 36.5977 229.425 36.8358C229.1 37.0739 229.101 37.3423 229.308 37.5243C229.514 37.7063 229.923 37.8027 230.23 37.9347C230.537 38.0667 230.74 38.2337 230.943 38.3999" stroke="#146BB8" stroke-linecap="round" stroke-linejoin="round"/>
<path d="M218.183 37.1739C218.607 37.2385 219.002 36.9476 219.067 36.5241C219.132 36.1006 218.841 35.705 218.417 35.6404C217.994 35.5758 217.598 35.8667 217.533 36.2902C217.469 36.7137 217.76 37.1094 218.183 37.1739Z" fill="#146BB8"/>
<path d="M218.724 32.151C218.713 32.1593 218.689 32.1763 218.648 32.2052C218.606 32.2341 218.547 32.2758 218.461 32.4488C218.374 32.6218 218.262 32.9242 218.35 33.1048C218.437 33.2856 218.726 33.3444 219.407 33.5354C220.089 33.7265 221.165 34.0498 221.844 34.2444C222.523 34.439 222.806 34.5051 222.956 34.4381C223.105 34.371 223.124 34.1707 222.955 33.8977C222.785 33.6248 222.427 33.2792 221.841 32.944C221.255 32.6088 220.441 32.2845 219.886 32.1525C219.33 32.0205 219.034 32.0816 218.916 32.105C218.798 32.1284 218.843 32.118 218.843 32.118C218.843 32.118 218.788 32.1306 218.762 32.1366C218.736 32.1427 218.736 32.1428 218.724 32.151L218.724 32.151Z" fill="#146BB8"/>
<path d="M212.14 35.8698C211.717 35.8052 211.426 35.4095 211.49 34.986C211.555 34.5626 211.95 34.2716 212.374 34.3362C212.797 34.4008 213.088 34.7964 213.024 35.2199C212.959 35.6434 212.563 35.9343 212.14 35.8698Z" fill="#146BB8"/>
<path d="M214.404 31.4785C214.411 31.49 214.425 31.5136 214.451 31.5544C214.476 31.5953 214.512 31.6537 214.531 31.8451C214.549 32.0365 214.55 32.3586 214.422 32.5011C214.295 32.6436 214.039 32.6061 213.419 32.5668C212.799 32.5274 211.814 32.4859 211.195 32.4508C210.576 32.4157 210.323 32.387 210.22 32.2753C210.117 32.1637 210.163 31.9681 210.386 31.7647C210.608 31.5613 211.009 31.3503 211.594 31.2225C212.179 31.0946 212.948 31.0506 213.446 31.105C213.944 31.1594 214.17 31.3129 214.26 31.3729C214.349 31.4329 214.316 31.4089 214.316 31.4091C214.317 31.4092 214.357 31.4383 214.377 31.4526C214.397 31.4668 214.396 31.4669 214.404 31.4784L214.404 31.4785Z" fill="#146BB8"/>
<path d="M210.206 28.1798C211.767 28.5284 214.156 28.3287 216.551 28.4888C218.946 28.6488 221.347 29.1683 223.176 29.7102C225.005 30.2521 226.286 30.8269 226.755 32.0574C227.224 33.2878 226.894 35.1788 226.945 36.0291C226.995 36.8794 227.426 36.6893 227.95 36.2186C228.473 35.7478 229.09 34.996 229.525 33.5789C229.96 32.1618 230.214 30.0808 229.763 27.8698C229.312 25.6589 228.157 23.3189 226.711 21.8201C225.265 20.3213 223.528 19.6643 221.735 19.4249C219.943 19.1856 218.096 19.3642 216.372 19.8513C214.647 20.3384 213.045 21.134 211.92 22.0196C210.794 22.9052 210.146 23.8803 209.435 24.5644C208.725 25.2486 207.951 25.6421 207.931 26.2879C207.911 26.9337 208.645 27.8312 210.206 28.1798Z" fill="#146BB8"/>
<path d="M226.843 32.3357C226.497 32.0154 225.805 31.3751 224.806 31.1029C223.807 30.8307 222.503 30.9264 221.081 31.0071C219.659 31.0879 218.12 31.1536 217.074 30.8412C216.028 30.5288 215.474 29.8384 215.281 29.2439C215.087 28.6494 215.254 28.1504 215.567 27.8691C215.881 27.5879 216.343 27.5247 216.155 27.3536C215.967 27.1825 215.13 26.9036 214.438 27.1435C213.747 27.3834 213.2 28.1415 212.485 28.7105C211.769 29.2794 210.883 29.6595 209.854 29.7019C208.824 29.7444 207.649 29.4496 206.782 29.004C205.915 28.5584 205.355 27.9622 205.183 27.375C205.012 26.7878 205.229 26.2094 205.63 25.8126C206.031 25.4159 206.617 25.2012 206.935 25.0542C207.253 24.9072 207.304 24.8278 207.49 24.4918C207.675 24.1558 207.995 23.5634 208.051 23.0637C208.107 22.564 207.9 22.1575 208.012 21.7127C208.123 21.268 208.553 20.7847 209.201 20.5302C209.848 20.2757 210.713 20.2505 211.791 20.2479C212.869 20.2453 214.159 20.2654 214.92 19.9284C215.681 19.5915 215.912 18.8973 216.566 18.4763C217.22 18.0553 218.297 17.9078 219.445 17.9526C220.593 17.9973 221.811 18.2343 222.77 18.6984C223.729 19.1625 224.429 19.8535 224.941 20.4098C225.454 20.9661 225.778 21.3875 226.623 22.4522C227.468 23.517 228.832 25.2248 229.332 26.9219C229.831 28.6191 229.465 30.305 228.964 31.2588C228.462 32.2125 227.826 32.4343 227.507 32.5451C227.189 32.6559 227.189 32.6559 226.843 32.3358L226.843 32.3357Z" fill="#146BB8"/>
<path d="M213.698 39.3402C214.085 40.0349 214.473 40.7296 215.203 40.9751C215.933 41.2206 217.007 41.0169 217.722 40.7106C218.436 40.4043 218.791 39.9952 219.146 39.5859" stroke="#FF5555" stroke-linecap="round" stroke-linejoin="round"/>
<path fill-rule="evenodd" clip-rule="evenodd" d="M213.813 54.0625L214.471 62.6205L224.087 55.5846L226.042 55.8743C226.042 55.8743 230.088 57.6469 231.828 59.7316C233.82 62.117 233.692 66.0633 233.32 68.6736C222.496 72.0326 203.984 74.462 198.756 63.1075C198.145 61.7814 197.905 60.0743 197.85 58.4188C200.959 57.3712 203.863 55.6318 203.863 55.6318C203.863 55.6318 205.92 54.803 207.238 54.4264C208.556 54.0498 210.613 53.7031 210.613 53.7031L210.419 54.1813C211.927 53.9933 213.024 53.9456 213.024 53.9456L213.813 54.0625Z" fill="#D92534"/>
<path d="M221.952 53.6225C220.672 54.7985 219.187 56.1897 217.907 57.3651C216.627 58.5405 215.958 59.1616 214.801 59.1311C213.431 59.4354 211.239 64.8835 217.511 62.0528C218.41 63.2448 218.01 64.1026 218.937 65.1995C219.864 66.2965 220.204 66.0224 220.5 65.7438C220.796 65.4652 221.745 65.0298 222.187 64.0562C222.63 63.0826 223.43 62.4114 223.875 60.9221C224.32 59.4328 225.051 57.6856 225.195 56.7158C225.339 55.746 225.286 55.4552 225.082 54.9108C224.879 54.3664 224.526 53.5688 224.322 53.1498C224.131 52.7577 223.926 52.5484 223.498 52.4417C223.371 52.4103 223.302 52.4286 223.267 52.4375C223.232 52.4466 223.233 52.4466 221.952 53.6225Z" fill="#DF1328"/>
<path d="M213.043 52.0595C213.193 52.0407 213.494 52.0029 213.677 52.1021C213.86 52.2013 213.924 52.4375 214.178 53.6409C214.432 54.8442 214.876 57.0149 215.109 58.156C215.342 59.2972 216.576 59.1394 216.555 59.2179C214.729 64.6134 214.121 61.8738 213.147 60.0778C212.017 60.7427 212.72 59.7937 211.503 60.4429C210.286 61.0921 209.481 62.2083 209.281 62.0866C209.08 61.9648 208.741 61.6686 208.703 60.7775C208.664 59.8864 208.785 59.4582 209.001 58.0486C209.217 56.6391 209.561 55.3431 209.867 54.5223C210.174 53.7014 210.442 53.3557 210.642 53.1516C210.842 52.9476 211.153 52.5539 211.718 52.3537C212.689 52.0104 212.117 52.1757 213.043 52.0595Z" fill="#DF1328"/>
<path d="M210.026 53.8703C209.315 55.292 208.964 57.1403 208.906 58.5499C208.849 59.9594 209.001 61.0834 209.201 61.5761C209.402 62.0688 209.65 61.9299 210.329 61.4066C211.008 60.8833 212.117 59.9755 212.785 60.045C213.453 60.1144 213.681 61.1609 213.908 62.2072" stroke="#AA0000" stroke-linecap="round" stroke-linejoin="round"/>
<path d="M225.242 55.4483C224.711 58.9051 223.533 61.8008 222.493 63.3427C221.454 64.8847 220.475 65.5985 219.922 65.8139C219.369 66.0293 219.242 65.7465 218.986 64.8582C218.729 63.97 218.343 62.4766 217.728 62.0717C217.113 61.6668 216.27 62.3501 215.427 63.0334" stroke="#AA0000" stroke-linecap="round" stroke-linejoin="round"/>
<path fill-rule="evenodd" clip-rule="evenodd" d="M227.73 61.4069C225.323 63.4132 222.909 66.7108 222.909 66.7108L215.676 76.3542L213.751 77.0418C212.174 78.5385 210.613 79.5435 209.167 79.7303C202.024 80.6528 193.207 73.788 188.802 69.8427C187.204 68.4108 184.751 68.3135 183.139 69.7312L182.712 70.1077C181.17 71.4647 180.91 73.7543 182.216 75.3395C186.918 81.0456 198.341 93.2718 209.167 92.2667C219.913 91.2692 231.588 77.8016 231.588 77.8016C231.588 77.8016 235.694 73.2209 233.276 62.6132C232.98 61.3149 232.308 60.2356 231.51 59.3594C230.762 59.6553 228.871 60.4561 227.73 61.4069Z" fill="#0D68B5"/>
<path d="M223.39 66.2344C223.39 66.2344 216.572 78.7785 209.166 79.7351C202.022 80.6577 193.205 73.7928 188.801 69.8475C187.202 68.4157 184.749 68.3184 183.138 69.7361L182.71 70.1126C181.168 71.4696 180.908 73.7592 182.214 75.3443C186.917 81.0504 198.339 93.2766 209.166 92.2716C219.911 91.274 231.586 77.8064 231.586 77.8064" stroke="#104C81" stroke-linecap="round" stroke-linejoin="round"/>
<path fill-rule="evenodd" clip-rule="evenodd" d="M180.73 53.9261C180.984 55.5117 181.324 57.1867 181.782 58.8417C184.812 58.5315 186.988 57.937 189.776 56.5801C188.927 55.3251 188.347 53.8461 187.954 52.3438C185.566 53.3088 183.492 53.8074 180.73 53.9261Z" fill="#DBDEE3"/>
<path fill-rule="evenodd" clip-rule="evenodd" d="M192.231 85.4101C195.422 83.1138 197.347 81.0858 199.633 77.5177C198.052 76.7221 196.513 75.7814 195.072 74.7969C192.968 77.5703 191 79.4491 187.766 81.4122C189.131 82.7533 190.631 84.1191 192.231 85.4101Z" fill="#DBDEE3"/>
<g clip-path="url(#clip1_50_63720)">
<path d="M185.869 156.354C187.114 151.311 183.297 146.438 178.102 146.438H120.18C116.5 146.438 113.295 148.948 112.413 152.521L104.31 185.36C103.066 190.403 106.883 195.276 112.077 195.276H169.999C173.679 195.276 176.885 192.766 177.766 189.193L185.869 156.354Z" fill="#B1D7FB"/>
<path d="M107.889 170.857L112.413 152.521C113.295 148.948 116.5 146.438 120.181 146.438H123.215" stroke="#146BB8" stroke-width="1.5" stroke-linecap="round"/>
<path d="M123.695 195.276H169.999C173.679 195.276 176.885 192.766 177.766 189.193L185.869 156.354C187.114 151.311 183.297 146.438 178.102 146.438H161.245" stroke="#146BB8" stroke-width="1.5" stroke-linecap="round"/>
<path d="M154.958 190.914H140.287L149.194 217.95H158.336C161.06 217.95 162.988 215.286 162.135 212.698L154.958 190.914Z" fill="#B1D7FB"/>
<path d="M140.287 190.914L146.836 210.537" stroke="#146BB8" stroke-width="1.5" stroke-linecap="round" stroke-linejoin="round"/>
<path d="M151.64 181.32L162.107 212.683C162.972 215.274 161.044 217.95 158.313 217.95H149.194" stroke="#146BB8" stroke-width="1.5" stroke-linecap="round" stroke-linejoin="round"/>
</g>
<defs>
<clipPath id="clip0_50_63720">
<rect x="148" y="36" width="118" height="62" rx="8" fill="white"/>
</clipPath>
<clipPath id="clip1_50_63720">
<rect width="102" height="77" fill="white" transform="translate(101 130)"/>
</clipPath>
</defs>
</svg>
